<?xml version="1.0" encoding="UTF-8"?>
<svg version="1.1" xmlns="http://www.w3.org/2000/svg" width="1280" height="1280">
<path d="M0 0 C20.5070519 8.86530221 39.50294412 10.65847192 61.703125 11.859375 C96.51261928 13.75934824 129.03554999 19.24296591 161.12792969 33.37451172 C171.75055902 38.04877198 179.70237082 40.62033717 190.9375 36.4375 C192.64219509 35.72620288 194.34642257 35.01354587 196.04199219 34.28076172 C231.2424563 19.12086109 266.00583316 13.39275846 304.125 11.4375 C325.15828283 10.34785133 343.25299253 7.06716716 362.73925781 -1.28320312 C376.48151989 -7.16357313 389.90762725 -11.95563886 405 -12.5625 C405.75796875 -12.60246094 406.5159375 -12.64242187 407.296875 -12.68359375 C429.86912263 -13.31060063 453.19284048 -5.78573873 470 9.4375 C470.70769531 10.07558594 471.41539062 10.71367188 472.14453125 11.37109375 C481.05742429 19.84089842 487.24917924 30.16252383 492 41.4375 C492.26119629 42.05463867 492.52239258 42.67177734 492.79150391 43.30761719 C501.14957021 64.25922004 499.49542194 91.85046086 491 112.4375 C489.27480704 116.3534517 487.53859762 120.26869135 485.54101562 124.05419922 C481.95429436 131.2573563 481.8604138 138.25488417 483.96484375 145.97875977 C485.05253699 149.16609541 486.19590615 152.31015124 487.41625977 155.44784546 C488.7350515 158.85007974 489.98096865 162.27886805 491.23046875 165.70703125 C491.47666962 166.37942337 491.72287048 167.05181549 491.97653198 167.74458313 C499.73321923 189.115816 502.53469302 211.29048423 502.39111328 233.92822266 C502.37500973 236.93568235 502.39108171 239.94179888 502.41015625 242.94921875 C502.42774738 258.98013518 500.5800479 274.18141751 496.8125 289.75 C493.79068666 302.86806799 494.02737063 313.14660299 500 325.4375 C501.51171444 328.81938407 502.97704051 332.2207131 504.4375 335.625 C504.82832764 336.53515869 505.21915527 337.44531738 505.62182617 338.38305664 C515.27275687 361.04272569 520.73417084 384.03317445 524 408.4375 C524.17724609 409.67040771 524.35449219 410.90331543 524.53710938 412.17358398 C525.36647059 419.84418243 525.18593371 427.59819344 525.203125 435.3046875 C525.20595238 436.16740391 525.20877975 437.03012032 525.21169281 437.91897964 C525.22664313 442.50181628 525.2358938 447.08462189 525.24023438 451.66748047 C525.24458556 455.39870158 525.25835141 459.12968709 525.28125 462.86083984 C525.44787559 490.59857759 524.27904779 517.36109709 518.6875 544.625 C518.37868258 546.16647541 518.07001045 547.70797993 517.76147461 549.24951172 C504.64752933 614.13615364 480.36022767 678.8630525 434 727.4375 C433.23945312 728.23929688 432.47890625 729.04109375 431.6953125 729.8671875 C427.7528299 733.92191159 423.66270581 737.58539641 419.25 741.125 C412.35346195 746.09593919 412.35346195 746.09593919 408.7175293 753.36083984 C408.67424938 758.47248636 409.50993709 762.59408767 411.13623047 767.421875 C419.02216048 791.5299075 417.38012916 819.21113522 409.84716797 843.16601562 C406.8005798 852.86845663 405.60883327 862.05115233 407.96875 872.07421875 C409.85611696 880.28459968 409.48643601 888.86997911 409.5 897.25 C409.5023465 898.16723846 409.50469299 899.08447693 409.5071106 900.0295105 C409.4922652 914.0241274 408.47701089 926.41109571 403 939.4375 C402.43972538 940.89518839 401.88112338 942.35352079 401.32421875 943.8125 C390.24447381 971.76389364 367.61576076 993.00922233 340.34179688 1004.83813477 C336.79513418 1006.33564141 333.22688647 1007.73004028 329.609375 1009.046875 C323.54940469 1011.38166876 321.64793412 1014.69457794 319 1020.4375 C318.36924937 1022.548911 317.78803642 1024.67558176 317.25 1026.8125 C309.65911111 1054.07069193 291.69429682 1078.30652255 266.9375 1092.3125 C260.482198 1095.82995904 253.93165109 1098.96453694 247 1101.4375 C246.00742187 1101.79457031 245.01484375 1102.15164063 243.9921875 1102.51953125 C224.5443931 1108.77562897 203.67747384 1108.90936412 183.45288086 1108.77368164 C179.67345012 1108.74991164 175.89472207 1108.75317477 172.11523438 1108.75976562 C133.34363544 1108.71575053 98.5813818 1102.93816294 69.8125 1074.6875 C63.63802255 1068.45100119 58.57072566 1061.95793814 54 1054.4375 C53.31421875 1053.31214844 52.6284375 1052.18679688 51.921875 1051.02734375 C47.22737133 1042.94817188 44.13186119 1034.60662641 41.43310547 1025.66992188 C39.87036716 1020.58211584 38.11987891 1016.74371942 35 1012.4375 C34.67 1011.4475 34.34 1010.4575 34 1009.4375 C31.87461457 1008.61830717 31.87461457 1008.61830717 29.25 1008.125 C3.58457837 1001.71694518 -20.01678575 982.57854476 -33.81640625 960.234375 C-39.53221709 950.52175649 -43.83540656 940.25148925 -47 929.4375 C-47.2693335 928.52726074 -47.53866699 927.61702148 -47.81616211 926.67919922 C-50.16375863 917.76737019 -50.43048077 909.28916624 -50.33618164 900.14306641 C-50.31239951 897.67707992 -50.31566923 895.21216754 -50.32226562 892.74609375 C-50.2966549 879.06341375 -50.2966549 879.06341375 -48.47387695 872.31445312 C-44.68564561 857.30985625 -50.06130113 841.47198055 -54.24389648 827.18212891 C-56.39462272 819.37506905 -56.36944436 811.60534131 -56.4375 803.5625 C-56.44825562 802.42334137 -56.44825562 802.42334137 -56.45922852 801.26116943 C-56.51893195 789.20901545 -54.88021665 778.701963 -51.35546875 767.13671875 C-49.66409912 761.57682632 -48.7004308 756.18985667 -50 750.4375 C-51.66533064 747.55092688 -52.53346477 746.43528192 -55 744.4375 C-55.69351563 743.87289062 -56.38703125 743.30828125 -57.1015625 742.7265625 C-58.77239057 741.39316551 -60.45002262 740.06826863 -62.1328125 738.75 C-121.26800775 691.05512863 -147.42798753 609.33455707 -160.6875 537.5 C-160.97306763 535.98696289 -160.97306763 535.98696289 -161.2644043 534.44335938 C-161.91309294 530.78377093 -162.47360099 527.1161912 -163 523.4375 C-163.19062515 522.13749054 -163.19062515 522.13749054 -163.38510132 520.81121826 C-166.1416249 501.38216313 -166.50128975 482.14205494 -166.44604492 462.55859375 C-166.43684302 459.14428222 -166.44383343 455.73065405 -166.46655273 452.31640625 C-166.60331748 431.6343485 -165.95721115 411.81813037 -162 391.4375 C-161.86397369 390.70599731 -161.72794739 389.97449463 -161.58779907 389.2208252 C-160.88779202 385.47445332 -160.084629 381.76627884 -159.1875 378.0625 C-158.93597168 377.00417969 -158.68444336 375.94585937 -158.42529297 374.85546875 C-153.98367518 356.70774285 -147.2815611 339.93122384 -139.41796875 323.0390625 C-138.97066406 322.03617187 -138.52335937 321.03328125 -138.0625 320 C-137.68222656 319.17628906 -137.30195313 318.35257812 -136.91015625 317.50390625 C-133.57213911 306.25779702 -136.05750718 295.98659726 -138.375 284.8125 C-138.87480332 282.34060449 -139.37019679 279.86789661 -139.86221313 277.3944397 C-140.16733679 275.86728825 -140.4774753 274.34112588 -140.79379272 272.81625366 C-142.45204391 264.66274829 -143.15654708 256.64228369 -143.203125 248.328125 C-143.21357849 247.06666656 -143.21357849 247.06666656 -143.22424316 245.77972412 C-143.24153497 243.08226457 -143.24796224 240.38501266 -143.25 237.6875 C-143.25100708 236.76743164 -143.25201416 235.84736328 -143.25305176 234.89941406 C-143.24312688 221.51834881 -142.81454905 208.56397446 -140 195.4375 C-139.86078125 194.72980469 -139.7215625 194.02210938 -139.578125 193.29296875 C-136.87805379 179.61760808 -132.38078224 166.37153187 -127.47265625 153.34375 C-122.32157126 139.60752335 -122.56554806 132.47709919 -128.46484375 119.12109375 C-138.57640885 96.09348367 -142.3695032 70.67361838 -134 46.4375 C-133.61457031 45.28121094 -133.22914063 44.12492187 -132.83203125 42.93359375 C-125.40095236 22.17948021 -110.67827083 5.88273274 -90.91796875 -3.80859375 C-60.55022087 -17.84142596 -29.67605036 -12.92206784 0 0 Z " fill="#FCFDFD" transform="translate(449,91.5625)"/>
<path d="M0 0 C4.82468929 1.43714149 4.82468929 1.43714149 6.9375 3.875 C7.7090968 10.17247691 5.91281612 13.3611855 2.375 18.25 C1.68772827 19.23552856 1.68772827 19.23552856 0.98657227 20.2409668 C-0.34381 22.13381743 -1.69699691 24.00738132 -3.0625 25.875 C-3.6915625 26.73996094 -4.320625 27.60492188 -4.96875 28.49609375 C-9.3231691 34.25748317 -14.16287176 39.57666784 -19.0625 44.875 C-19.83787109 45.78378906 -19.83787109 45.78378906 -20.62890625 46.7109375 C-26.52326232 53.267062 -34.56552499 57.40201491 -42.0625 61.875 C-38.95330675 65.0417709 -35.76730361 68.06462512 -32.45825195 71.02075195 C-19.02506168 83.0948804 -7.20105471 98.15318006 -0.0625 114.875 C0.41703125 115.98359375 0.8965625 117.0921875 1.390625 118.234375 C8.44909919 135.2964572 11.39862585 152.49482614 11.5 170.875 C11.5131424 171.90389847 11.5131424 171.90389847 11.52655029 172.95358276 C11.61681275 183.23195069 9.95445036 192.10693921 6.9375 201.875 C6.53298684 203.32976834 6.13116673 204.78529418 5.734375 206.2421875 C-0.06327162 225.66863027 -9.30129978 243.28196568 -23.34765625 258.01953125 C-25.12712965 259.7720546 -25.12712965 259.7720546 -26.0625 261.875 C-25.42183594 261.91238281 -24.78117187 261.94976562 -24.12109375 261.98828125 C-11.74425581 262.92899472 -2.75298605 268.75875097 5.65234375 277.79296875 C19.44435064 294.36801028 25.509643 314.91583372 30.25 335.5625 C30.63212646 337.19989136 30.63212646 337.19989136 31.02197266 338.87036133 C41.19115268 385.24168362 34.35166901 439.2341221 22.9375 484.875 C22.73688965 485.69258789 22.5362793 486.51017578 22.32958984 487.35253906 C19.83189581 497.38197253 16.59920745 507.18442927 13.375 517 C12.99883545 518.15121338 12.6226709 519.30242676 12.23510742 520.48852539 C10.42404881 525.9050314 8.51888973 531.05557442 5.84594727 536.10498047 C4.39188424 538.93807827 3.30448263 541.89637965 2.1875 544.875 C1.75953125 546.009375 1.3315625 547.14375 0.890625 548.3125 C0.57609375 549.158125 0.2615625 550.00375 -0.0625 550.875 C-0.7225 550.875 -1.3825 550.875 -2.0625 550.875 C-2.177146 551.60315918 -2.29179199 552.33131836 -2.40991211 553.08154297 C-3.08295242 555.96254827 -4.04345449 558.00773739 -5.50390625 560.5703125 C-6.00116211 561.44582764 -6.49841797 562.32134277 -7.01074219 563.22338867 C-7.54344727 564.13967041 -8.07615234 565.05595215 -8.625 566 C-9.16930664 566.94270752 -9.71361328 567.88541504 -10.27441406 568.85668945 C-14.17097374 575.52704198 -18.24930911 581.82326836 -23.0625 587.875 C-24.07957031 589.17630859 -24.07957031 589.17630859 -25.1171875 590.50390625 C-27.07449216 592.98192781 -29.06337265 595.43068883 -31.0625 597.875 C-31.55234375 598.50148438 -32.0421875 599.12796875 -32.546875 599.7734375 C-36.72412995 604.9598046 -41.74149456 608.90651801 -47.0625 612.875 C-47.79597656 613.42414062 -48.52945312 613.97328125 -49.28515625 614.5390625 C-60.81469322 622.6997148 -72.0973798 625.70827789 -86.0625 624.875 C-99.32801817 622.4924564 -108.99051127 613.33411671 -116.5625 602.8125 C-137.89586486 571.54575902 -141.29351297 533.58215479 -141.375 496.8125 C-141.37795074 495.64313904 -141.38090149 494.47377808 -141.38394165 493.26898193 C-141.39252929 478.25753185 -141.01586638 463.41478543 -139.25 448.5 C-139.16722809 447.79575897 -139.08445618 447.09151794 -138.99917603 446.36593628 C-137.83569165 436.76836236 -136.06724974 427.32841554 -134.0625 417.875 C-133.8245874 416.73643555 -133.5866748 415.59787109 -133.34155273 414.42480469 C-130.51555105 401.03366478 -127.54294152 387.8207005 -123.0625 374.875 C-122.4025 374.875 -121.7425 374.875 -121.0625 374.875 C-120.95421875 373.89144531 -120.8459375 372.90789062 -120.734375 371.89453125 C-120.11475257 367.58425565 -118.79183041 363.64565496 -117.3125 359.5625 C-117.04518066 358.81411865 -116.77786133 358.0657373 -116.50244141 357.29467773 C-114.70917395 352.37835785 -112.65333703 347.72052941 -110.19140625 343.09765625 C-109.0710245 340.89178353 -108.22026255 338.69848914 -107.375 336.375 C-102.03992267 322.7480555 -93.76399723 310.53835302 -85.0625 298.875 C-84.4025 297.885 -83.7425 296.895 -83.0625 295.875 C-83.75472656 296.14054687 -84.44695312 296.40609375 -85.16015625 296.6796875 C-107.2020102 304.63682582 -132.65636337 304.11630654 -155.0625 297.875 C-155.7548877 297.69308105 -156.44727539 297.51116211 -157.16064453 297.32373047 C-172.13415591 293.3560868 -185.22220727 286.38823783 -198.07421875 277.85546875 C-200.69788649 276.11664581 -203.34995609 274.47031803 -206.0625 272.875 C-206.19325928 273.74898438 -206.32401855 274.62296875 -206.45874023 275.5234375 C-208.25542005 285.49708103 -212.47744358 294.16158212 -217.5 302.875 C-218.06009766 303.88433594 -218.62019531 304.89367187 -219.19726562 305.93359375 C-225.40567532 316.84358791 -225.40567532 316.84358791 -231.5 318.5625 C-236.96348008 317.09668827 -240.14015199 310.95454771 -242.87890625 306.30859375 C-243.80605996 304.64976358 -244.72111963 302.98412549 -245.625 301.3125 C-246.10171143 300.437146 -246.57842285 299.56179199 -247.06958008 298.65991211 C-256.54411974 280.89291452 -256.54411974 280.89291452 -256.0625 271.875 C-256.61035156 272.27589844 -257.15820312 272.67679687 -257.72265625 273.08984375 C-269.86379434 281.79592814 -282.00227917 288.81003156 -296.0625 293.875 C-296.82433594 294.16890625 -297.58617187 294.4628125 -298.37109375 294.765625 C-303.49855195 296.6446935 -308.8069713 297.79910279 -314.125 299 C-314.88143799 299.17096191 -315.63787598 299.34192383 -316.41723633 299.51806641 C-337.13682907 304.04223132 -359.12785935 303.35049024 -379.0625 295.875 C-378.47984375 296.64199219 -377.8971875 297.40898437 -377.296875 298.19921875 C-371.95138966 305.38142037 -367.19673753 312.79044265 -362.75 320.5625 C-362.25918945 321.41610107 -361.76837891 322.26970215 -361.26269531 323.14916992 C-358.27383505 328.44765015 -355.63762046 333.83225608 -353.16772461 339.39086914 C-351.84030242 342.37441693 -350.41596013 345.30764273 -349 348.25 C-345.08894497 356.71723254 -341.9306977 365.54187475 -341.0625 374.875 C-340.4025 374.875 -339.7425 374.875 -339.0625 374.875 C-334.83100724 389.09630558 -331.12124294 403.35483075 -328.0625 417.875 C-327.82023682 419.01404785 -327.57797363 420.1530957 -327.32836914 421.32666016 C-325.46151522 430.34104913 -323.94961284 439.35696542 -322.875 448.5 C-322.7881192 449.2338089 -322.7012384 449.9676178 -322.61172485 450.72366333 C-320.86583104 466.06575841 -320.71107036 481.38493719 -320.75 496.8125 C-320.75382187 498.53705414 -320.75382187 498.53705414 -320.75772095 500.29644775 C-320.82186102 517.10535167 -321.39267119 533.07472308 -324.9375 549.5625 C-325.19402344 550.80322266 -325.45054687 552.04394531 -325.71484375 553.32226562 C-330.9255425 578.05344635 -340.60871838 603.87818178 -362.0625 618.875 C-362.77664063 619.390625 -363.49078125 619.90625 -364.2265625 620.4375 C-368.51067871 623.34871411 -371.79018775 624.61570595 -377.0625 624.875 C-378.48369141 624.9678125 -378.48369141 624.9678125 -379.93359375 625.0625 C-398.91349994 625.79162005 -412.56702757 616.12593318 -426.0625 603.875 C-428.59407752 601.34342248 -430.84721289 598.68558453 -433.0625 595.875 C-434.24972656 594.39 -434.24972656 594.39 -435.4609375 592.875 C-449.64787316 574.92495143 -461.40776284 554.33259195 -469.32958984 532.85888672 C-470.16703669 530.59203361 -471.01529377 528.32933665 -471.86328125 526.06640625 C-472.49271102 524.37779922 -473.12161917 522.68899766 -473.75 521 C-474.0476123 520.20343994 -474.34522461 519.40687988 -474.65185547 518.58618164 C-479.0625 506.64287758 -479.0625 506.64287758 -479.0625 500.875 C-479.7225 500.875 -480.3825 500.875 -481.0625 500.875 C-481.33964844 499.74320313 -481.61679687 498.61140625 -481.90234375 497.4453125 C-482.26810488 495.96351098 -482.63399711 494.48174182 -483 493 C-483.18240234 492.25363281 -483.36480469 491.50726562 -483.55273438 490.73828125 C-484.51459692 486.70460875 -484.51459692 486.70460875 -486.0625 482.875 C-486.36429536 481.25546449 -486.62814005 479.62881425 -486.875 478 C-487.46673578 474.26110649 -488.11323849 470.55622446 -488.94140625 466.86328125 C-494.70752469 440.920075 -496.43569305 415.14132847 -496.375 388.625 C-496.37254272 387.50552979 -496.37008545 386.38605957 -496.36755371 385.23266602 C-496.29898286 367.77978131 -496.03711012 351.04779007 -491.875 334 C-491.719104 333.34990967 -491.56320801 332.69981934 -491.40258789 332.0300293 C-486.72405978 312.55485083 -480.65728203 292.18866252 -467.0625 276.875 C-466.4025 276.875 -465.7425 276.875 -465.0625 276.875 C-464.81113281 276.27816406 -464.55976563 275.68132812 -464.30078125 275.06640625 C-461.04012801 269.29597576 -453.19155094 265.19615484 -447.25 262.6875 C-443.35346329 261.69426515 -440.07493699 261.7366401 -436.0625 261.875 C-436.619375 261.20855469 -437.17625 260.54210937 -437.75 259.85546875 C-453.92773376 240.31648288 -464.72408173 220.56438469 -471.0625 195.875 C-471.24200195 195.25858643 -471.42150391 194.64217285 -471.60644531 194.00708008 C-473.59704957 186.47465492 -473.45804268 178.79752518 -473.4375 171.0625 C-473.43728851 170.33122894 -473.43707703 169.59995789 -473.43685913 168.8465271 C-473.40220061 156.83020482 -472.4603251 145.44770751 -469.0625 133.875 C-468.70027344 132.63621094 -468.33804687 131.39742187 -467.96484375 130.12109375 C-459.56619854 104.64045829 -442.69744355 77.96496237 -420.0625 62.875 C-421.05507813 62.24335938 -422.04765625 61.61171875 -423.0703125 60.9609375 C-437.99952646 51.22642401 -449.8266541 39.44448574 -460.0625 24.875 C-460.48998535 24.2759082 -460.9174707 23.67681641 -461.35791016 23.05957031 C-462.65753927 21.22111756 -463.92722129 19.36560157 -465.1875 17.5 C-465.57848877 16.94119141 -465.96947754 16.38238281 -466.37231445 15.80664062 C-469.04399052 11.71675745 -469.52112043 8.70227398 -469.0625 3.875 C-468.0625 1.9375 -468.0625 1.9375 -466.0625 0.875 C-457.5921193 -0.47047564 -451.1465241 4.08503947 -444 8.0625 C-416.35857351 23.35822291 -388.09475076 24.98368479 -357.03540039 25.90405273 C-333.79030015 26.61336268 -309.1465967 28.22427074 -288.0625 38.875 C-286.9075 39.349375 -285.7525 39.82375 -284.5625 40.3125 C-265.95121993 48.62110717 -243.56724605 62.61788092 -232.0625 79.875 C-228.7337479 78.76541597 -228.04760301 77.94955496 -225.875 75.3125 C-214.33648896 61.83895916 -200.69872835 52.14295772 -185.0625 43.875 C-184.41635742 43.52808105 -183.77021484 43.18116211 -183.10449219 42.82373047 C-165.94293611 33.66176766 -148.16579133 29.19756152 -128.8125 27.25 C-127.57943115 27.12230225 -126.3463623 26.99460449 -125.07592773 26.86303711 C-116.13727475 26.0058601 -107.24706778 25.64455619 -98.27163696 25.4777832 C-64.31104666 24.84048804 -34.37871337 19.30079055 -5.12109375 1.0390625 C-3.0625 -0.125 -3.0625 -0.125 0 0 Z " fill="#04A696" transform="translate(871.0625,149.125)"/>
<path d="M0 0 C20.5070519 8.86530221 39.50294412 10.65847192 61.703125 11.859375 C96.51261928 13.75934824 129.03554999 19.24296591 161.12792969 33.37451172 C171.75055902 38.04877198 179.70237082 40.62033717 190.9375 36.4375 C192.64219509 35.72620288 194.34642257 35.01354587 196.04199219 34.28076172 C231.2424563 19.12086109 266.00583316 13.39275846 304.125 11.4375 C325.15828283 10.34785133 343.25299253 7.06716716 362.73925781 -1.28320312 C376.48151989 -7.16357313 389.90762725 -11.95563886 405 -12.5625 C405.75796875 -12.60246094 406.5159375 -12.64242187 407.296875 -12.68359375 C429.86912263 -13.31060063 453.19284048 -5.78573873 470 9.4375 C470.70769531 10.07558594 471.41539062 10.71367188 472.14453125 11.37109375 C481.05742429 19.84089842 487.24917924 30.16252383 492 41.4375 C492.26119629 42.05463867 492.52239258 42.67177734 492.79150391 43.30761719 C501.14957021 64.25922004 499.49542194 91.85046086 491 112.4375 C489.27480704 116.3534517 487.53859762 120.26869135 485.54101562 124.05419922 C481.95429436 131.2573563 481.8604138 138.25488417 483.96484375 145.97875977 C485.05253699 149.16609541 486.19590615 152.31015124 487.41625977 155.44784546 C488.7350515 158.85007974 489.98096865 162.27886805 491.23046875 165.70703125 C491.47666962 166.37942337 491.72287048 167.05181549 491.97653198 167.74458313 C499.73321923 189.115816 502.53469302 211.29048423 502.39111328 233.92822266 C502.37500973 236.93568235 502.39108171 239.94179888 502.41015625 242.94921875 C502.42774738 258.98013518 500.5800479 274.18141751 496.8125 289.75 C493.79068666 302.86806799 494.02737063 313.14660299 500 325.4375 C501.51171444 328.81938407 502.97704051 332.2207131 504.4375 335.625 C504.82832764 336.53515869 505.21915527 337.44531738 505.62182617 338.38305664 C515.27275687 361.04272569 520.73417084 384.03317445 524 408.4375 C524.17724609 409.67040771 524.35449219 410.90331543 524.53710938 412.17358398 C525.36647059 419.84418243 525.18593371 427.59819344 525.203125 435.3046875 C525.20595238 436.16740391 525.20877975 437.03012032 525.21169281 437.91897964 C525.22664313 442.50181628 525.2358938 447.08462189 525.24023438 451.66748047 C525.24458556 455.39870158 525.25835141 459.12968709 525.28125 462.86083984 C525.44787559 490.59857759 524.27904779 517.36109709 518.6875 544.625 C518.37868258 546.16647541 518.07001045 547.70797993 517.76147461 549.24951172 C504.64752933 614.13615364 480.36022767 678.8630525 434 727.4375 C433.23945312 728.23929688 432.47890625 729.04109375 431.6953125 729.8671875 C427.7528299 733.92191159 423.66270581 737.58539641 419.25 741.125 C412.35346195 746.09593919 412.35346195 746.09593919 408.7175293 753.36083984 C408.67424938 758.47248636 409.50993709 762.59408767 411.13623047 767.421875 C419.02216048 791.5299075 417.38012916 819.21113522 409.84716797 843.16601562 C406.8005798 852.86845663 405.60883327 862.05115233 407.96875 872.07421875 C409.85611696 880.28459968 409.48643601 888.86997911 409.5 897.25 C409.5023465 898.16723846 409.50469299 899.08447693 409.5071106 900.0295105 C409.4922652 914.0241274 408.47701089 926.41109571 403 939.4375 C402.43972538 940.89518839 401.88112338 942.35352079 401.32421875 943.8125 C390.24447381 971.76389364 367.61576076 993.00922233 340.34179688 1004.83813477 C336.79513418 1006.33564141 333.22688647 1007.73004028 329.609375 1009.046875 C323.54940469 1011.38166876 321.64793412 1014.69457794 319 1020.4375 C318.36924937 1022.548911 317.78803642 1024.67558176 317.25 1026.8125 C309.65911111 1054.07069193 291.69429682 1078.30652255 266.9375 1092.3125 C260.482198 1095.82995904 253.93165109 1098.96453694 247 1101.4375 C246.00742187 1101.79457031 245.01484375 1102.15164063 243.9921875 1102.51953125 C224.5443931 1108.77562897 203.67747384 1108.90936412 183.45288086 1108.77368164 C179.67345012 1108.74991164 175.89472207 1108.75317477 172.11523438 1108.75976562 C133.34363544 1108.71575053 98.5813818 1102.93816294 69.8125 1074.6875 C63.63802255 1068.45100119 58.57072566 1061.95793814 54 1054.4375 C53.31421875 1053.31214844 52.6284375 1052.18679688 51.921875 1051.02734375 C47.22737133 1042.94817188 44.13186119 1034.60662641 41.43310547 1025.66992188 C39.87036716 1020.58211584 38.11987891 1016.74371942 35 1012.4375 C34.67 1011.4475 34.34 1010.4575 34 1009.4375 C31.87461457 1008.61830717 31.87461457 1008.61830717 29.25 1008.125 C3.58457837 1001.71694518 -20.01678575 982.57854476 -33.81640625 960.234375 C-39.53221709 950.52175649 -43.83540656 940.25148925 -47 929.4375 C-47.2693335 928.52726074 -47.53866699 927.61702148 -47.81616211 926.67919922 C-50.16375863 917.76737019 -50.43048077 909.28916624 -50.33618164 900.14306641 C-50.31239951 897.67707992 -50.31566923 895.21216754 -50.32226562 892.74609375 C-50.2966549 879.06341375 -50.2966549 879.06341375 -48.47387695 872.31445312 C-44.68564561 857.30985625 -50.06130113 841.47198055 -54.24389648 827.18212891 C-56.39462272 819.37506905 -56.36944436 811.60534131 -56.4375 803.5625 C-56.44825562 802.42334137 -56.44825562 802.42334137 -56.45922852 801.26116943 C-56.51893195 789.20901545 -54.88021665 778.701963 -51.35546875 767.13671875 C-49.66409912 761.57682632 -48.7004308 756.18985667 -50 750.4375 C-51.66533064 747.55092688 -52.53346477 746.43528192 -55 744.4375 C-55.69351563 743.87289062 -56.38703125 743.30828125 -57.1015625 742.7265625 C-58.77239057 741.39316551 -60.45002262 740.06826863 -62.1328125 738.75 C-121.26800775 691.05512863 -147.42798753 609.33455707 -160.6875 537.5 C-160.97306763 535.98696289 -160.97306763 535.98696289 -161.2644043 534.44335938 C-161.91309294 530.78377093 -162.47360099 527.1161912 -163 523.4375 C-163.19062515 522.13749054 -163.19062515 522.13749054 -163.38510132 520.81121826 C-166.1416249 501.38216313 -166.50128975 482.14205494 -166.44604492 462.55859375 C-166.43684302 459.14428222 -166.44383343 455.73065405 -166.46655273 452.31640625 C-166.60331748 431.6343485 -165.95721115 411.81813037 -162 391.4375 C-161.86397369 390.70599731 -161.72794739 389.97449463 -161.58779907 389.2208252 C-160.88779202 385.47445332 -160.084629 381.76627884 -159.1875 378.0625 C-158.93597168 377.00417969 -158.68444336 375.94585937 -158.42529297 374.85546875 C-153.98367518 356.70774285 -147.2815611 339.93122384 -139.41796875 323.0390625 C-138.97066406 322.03617187 -138.52335937 321.03328125 -138.0625 320 C-137.68222656 319.17628906 -137.30195313 318.35257812 -136.91015625 317.50390625 C-133.57213911 306.25779702 -136.05750718 295.98659726 -138.375 284.8125 C-138.87480332 282.34060449 -139.37019679 279.86789661 -139.86221313 277.3944397 C-140.16733679 275.86728825 -140.4774753 274.34112588 -140.79379272 272.81625366 C-142.45204391 264.66274829 -143.15654708 256.64228369 -143.203125 248.328125 C-143.21357849 247.06666656 -143.21357849 247.06666656 -143.22424316 245.77972412 C-143.24153497 243.08226457 -143.24796224 240.38501266 -143.25 237.6875 C-143.25100708 236.76743164 -143.25201416 235.84736328 -143.25305176 234.89941406 C-143.24312688 221.51834881 -142.81454905 208.56397446 -140 195.4375 C-139.86078125 194.72980469 -139.7215625 194.02210938 -139.578125 193.29296875 C-136.87805379 179.61760808 -132.38078224 166.37153187 -127.47265625 153.34375 C-122.32157126 139.60752335 -122.56554806 132.47709919 -128.46484375 119.12109375 C-138.57640885 96.09348367 -142.3695032 70.67361838 -134 46.4375 C-133.61457031 45.28121094 -133.22914063 44.12492187 -132.83203125 42.93359375 C-125.40095236 22.17948021 -110.67827083 5.88273274 -90.91796875 -3.80859375 C-60.55022087 -17.84142596 -29.67605036 -12.92206784 0 0 Z M-61 22.4375 C-61.67289063 22.76492187 -62.34578125 23.09234375 -63.0390625 23.4296875 C-74.75803883 29.82610087 -81.86665053 40.03745159 -86 52.4375 C-86.31478474 56.57791552 -86.32429443 60.72405742 -86.375 64.875 C-86.41238281 66.00099609 -86.44976562 67.12699219 -86.48828125 68.28710938 C-86.59946018 79.02822945 -83.3808964 87.63416158 -77.25 96.4375 C-76.56679688 97.42234375 -75.88359375 98.4071875 -75.1796875 99.421875 C-70.92396666 105.30971817 -66.63761053 111.18302895 -62.0625 116.828125 C-61.505625 117.52421875 -60.94875 118.2203125 -60.375 118.9375 C-59.88773438 119.5253125 -59.40046875 120.113125 -58.8984375 120.71875 C-58 122.4375 -58 122.4375 -58.07421875 124.25390625 C-59.42067104 127.42971567 -61.44275423 130.08430092 -63.4375 132.875 C-89.65632482 171.03177804 -95.4106396 217.59035343 -88 262.4375 C-85.4666308 275.99571664 -80.6008163 290.69011451 -73.55664062 302.61547852 C-73 304.4375 -73 304.4375 -73.79248047 306.53735352 C-75.23369695 308.80524431 -76.87655918 310.77149139 -78.625 312.8125 C-98.3515984 337.20369116 -108.44361239 370.74207682 -112 401.4375 C-112.08878418 402.11441895 -112.17756836 402.79133789 -112.26904297 403.48876953 C-123.35866018 490.24211561 -104.57395461 597.90737459 -50.42333984 668.49267578 C-31.66579096 692.50904714 -8.68730339 714.43044595 22 721.4375 C25.39085089 721.75302583 28.61453947 721.79596053 32 721.4375 C32.5625 724.5625 32.5625 724.5625 32 728.4375 C30.48828125 729.74609375 30.48828125 729.74609375 28.375 731 C15.09097674 738.9536253 6.81956277 750.36369837 1 764.4375 C0.56042969 765.4584375 0.12085938 766.479375 -0.33203125 767.53125 C-3.87188468 776.03690488 -4.24368879 783.21679829 -4.3125 792.4375 C-4.34150391 793.70207031 -4.37050781 794.96664062 -4.40039062 796.26953125 C-4.47837895 807.91978781 -1.41894831 817.39302023 3.8125 827.6875 C4.15216797 828.36425781 4.49183594 829.04101562 4.84179688 829.73828125 C7.54907458 834.95192551 10.72175531 839.37316754 15 843.4375 C14.22076172 844.80068359 14.22076172 844.80068359 13.42578125 846.19140625 C11.16672972 850.21574829 9.05819851 854.30733576 7 858.4375 C6.45730469 859.5203125 5.91460937 860.603125 5.35546875 861.71875 C-0.59303144 876.11857755 -0.58221131 897.09986339 4 911.9375 C4.93197047 914.13428754 5.93069572 916.30418502 7 918.4375 C7.75023437 920.11972656 7.75023437 920.11972656 8.515625 921.8359375 C17.68872728 940.22346234 34.36407511 953.44176151 53.48266602 960.33227539 C61.31576451 962.76693606 69.03268019 962.9825044 77.1875 963.125 C78.53453638 963.15826617 79.88154292 963.19276396 81.22851562 963.22851562 C84.48559287 963.31023441 87.74242659 963.37963163 91 963.4375 C90.83991455 963.96351807 90.6798291 964.48953613 90.51489258 965.03149414 C89.47711683 969.88084454 89.73403653 974.90133956 89.70483398 979.8425293 C89.68782142 981.83731266 89.64397236 983.83180932 89.59960938 985.82617188 C89.48858744 1002.96625112 95.5783499 1018.62701042 107 1031.4375 C107.4419873 1031.93926758 107.88397461 1032.44103516 108.33935547 1032.95800781 C120.18155607 1046.20521527 135.19150069 1055.64351141 153.39964294 1056.81593323 C158.34935676 1057.01103914 163.29736696 1056.99487281 168.25 1056.96875 C170.07975469 1056.97145315 171.90950797 1056.97534236 173.73925781 1056.98034668 C177.55157308 1056.9862031 181.36351036 1056.97780457 185.17578125 1056.95898438 C190.02376406 1056.93619715 194.87086061 1056.94934115 199.71881104 1056.97327423 C203.49046313 1056.98783741 207.26191055 1056.98307846 211.03356934 1056.97276306 C212.81945912 1056.97012471 214.60536846 1056.97326167 216.39123535 1056.98268127 C237.86298506 1057.0711246 255.40725261 1051.59351744 270.9375 1036.3125 C283.1589195 1023.82261265 292.11607718 1008.40902854 292.1328125 990.52734375 C292.13474609 988.54831055 292.13474609 988.54831055 292.13671875 986.52929688 C292.13462402 985.84730225 292.1325293 985.16530762 292.13037109 984.46264648 C292.12500777 982.37801874 292.1303355 980.29360557 292.13671875 978.20898438 C292.13542969 976.89091797 292.13414062 975.57285156 292.1328125 974.21484375 C292.13168457 973.01077881 292.13055664 971.80671387 292.12939453 970.56616211 C292.02265392 967.98525468 291.76397259 965.88684011 291 963.4375 C291.81041748 963.4281543 292.62083496 963.41880859 293.45581055 963.40917969 C296.52970131 963.36455763 299.60268009 963.30268245 302.67602539 963.22998047 C304.63339705 963.1886426 306.59114122 963.16631633 308.54882812 963.14453125 C329.98436397 962.59909777 347.11648616 953.5639698 361.87036133 938.44799805 C368.04303782 931.79939568 372.8384934 924.98934107 376 916.4375 C376.34957764 915.50671631 376.69915527 914.57593262 377.05932617 913.61694336 C379.95336706 905.19669 380.66638359 897.49313935 380.5625 888.625 C380.55226807 887.30709473 380.54203613 885.98918945 380.53149414 884.63134766 C380.22162394 870.40892014 377.24426151 859.85359047 369.2578125 847.890625 C368 845.4375 368 845.4375 367.9921875 843.484375 C369.19959315 841.03212477 370.87410335 839.17280077 372.66308594 837.12402344 C374.98059939 834.20046921 376.51177086 830.91010987 378.125 827.5625 C378.45886719 826.89347656 378.79273438 826.22445312 379.13671875 825.53515625 C384.50796063 814.60309925 386.221418 805.66248349 386.3125 793.5 C386.34150391 792.24380859 386.37050781 790.98761719 386.40039062 789.69335938 C386.51812957 772.1502564 379.73800516 756.62225287 368.69921875 743.1328125 C367.16407627 741.20206913 367.16407627 741.20206913 365 741.4375 C365.24556641 739.96603516 365.24556641 739.96603516 365.49609375 738.46484375 C366.09159852 734.29631034 366.11249575 730.20348864 366.0625 726 C366.05573242 724.90268555 366.05573242 724.90268555 366.04882812 723.78320312 C366.03718148 722.00126581 366.01925191 720.21937137 366 718.4375 C367.29550781 718.19902344 368.59101562 717.96054687 369.92578125 717.71484375 C375.12503693 716.5514379 379.51484156 714.51645713 384.1875 712 C385.01483643 711.5560791 385.84217285 711.1121582 386.69458008 710.65478516 C439.48688616 681.51919192 464.65075626 618.14638696 481 563.4375 C498.08370254 503.91025287 503.72805302 435.0086015 489 374.4375 C488.71511719 373.25285156 488.43023438 372.06820313 488.13671875 370.84765625 C482.09544984 348.03987011 472.48894078 323.02378577 455 306.4375 C456.33324996 302.23021592 457.92939533 298.26805492 459.75 294.25 C466.21210631 279.42587597 470.023726 264.46027927 472 248.4375 C472.19722656 247.00277344 472.19722656 247.00277344 472.3984375 245.5390625 C477.19127529 204.47610088 467.00189199 160.11206903 441.4921875 127.2421875 C440 124.4375 440 124.4375 440.48046875 121.8984375 C442.23776438 119.05243173 444.20853114 116.68394512 446.4375 114.1875 C450.68136361 109.28215302 454.35931522 104.13630379 457.875 98.6875 C458.55260376 97.64287598 458.55260376 97.64287598 459.24389648 96.57714844 C466.00817806 85.93874397 468.20729908 78.45063689 468.3125 65.8125 C468.34150391 64.67425781 468.37050781 63.53601563 468.40039062 62.36328125 C468.47572574 52.26837577 466.11989649 44.537363 460 36.4375 C459.38898438 35.60992187 459.38898438 35.60992187 458.765625 34.765625 C452.03804837 26.2238704 442.72261971 20.32906861 432 18.4375 C428.28999873 18.10930206 424.59845008 17.9869511 420.875 17.9375 C419.49779785 17.90958374 419.49779785 17.90958374 418.09277344 17.88110352 C406.96089761 17.98380714 398.32789399 23.19334487 388.75 28.375 C365.41087318 40.68226473 342.4584381 43.23836229 316.30764771 43.82455444 C284.92959562 44.57114549 255.59484869 47.40574641 227 61.4375 C226.1037793 61.87255859 225.20755859 62.30761719 224.28417969 62.75585938 C212.78757739 68.39232587 202.12643927 74.59163697 192 82.4375 C188.39303833 80.76470618 185.18709269 78.62990178 181.875 76.4375 C145.61423699 52.95433919 109.45482511 44.97452508 66.69595337 43.94924927 C56.61980795 43.69899244 46.65451316 43.12019211 36.625 42.0625 C34.95207886 41.8914978 34.95207886 41.8914978 33.24536133 41.71704102 C16.41221641 39.79827014 1.96126494 33.46275447 -12.51977539 24.95288086 C-21.24220039 19.912621 -28.78269996 17.89073813 -38.875 18 C-40.330271 18.01027222 -40.330271 18.01027222 -41.81494141 18.02075195 C-48.84832343 18.17863938 -54.74814996 19.02945178 -61 22.4375 Z " fill="#000000" transform="translate(449,91.5625)"/>
<path d="M0 0 C2.3469509 -0.00243133 4.69390076 -0.00615395 7.04084778 -0.01106262 C13.38371248 -0.02042791 19.72642168 -0.01108314 26.06927419 0.00226951 C32.047729 0.01247627 38.02617481 0.00996666 44.00463503 0.00806699 C55.85109787 0.00488524 67.69750037 0.01649826 79.54394531 0.03613281 C91.01369056 0.05513775 102.48336513 0.0622182 113.953125 0.05664062 C126.47379211 0.05056993 138.99442824 0.05078316 151.51509279 0.06212646 C158.13170561 0.06809867 164.74829982 0.0718053 171.36491585 0.06915855 C177.58582241 0.06726847 183.80663892 0.07543487 190.02752495 0.09121895 C192.30426028 0.09544433 194.58100478 0.09632417 196.85774231 0.09352875 C231.45734333 0.05750562 231.45734333 0.05750562 244.15209961 11.7043457 C251.52550143 19.73608697 253.10040341 28.06240568 252.93334961 38.7434082 C252.30029704 47.93256197 247.58757058 55.94556517 240.87084961 62.12231445 C235.23475325 66.79771257 228.79025995 70.49415333 221.33571243 70.50094891 C220.44230691 70.50417335 219.54890139 70.5073978 218.62842298 70.51071995 C217.64585357 70.50917135 216.66328417 70.50762275 215.65093994 70.50602722 C214.60792622 70.50829278 213.56491251 70.51055833 212.49029231 70.51289254 C208.97813624 70.51924747 205.46601862 70.51840222 201.95385742 70.51757812 C199.44263661 70.52056872 196.93141627 70.52397101 194.42019653 70.52775574 C188.29610826 70.53569013 182.17203417 70.53881089 176.04794124 70.53936812 C171.06952403 70.53984307 166.09110999 70.54189679 161.11269379 70.54506874 C146.99946899 70.55387785 132.8862518 70.55848783 118.77302423 70.55773827 C117.63132084 70.55767833 117.63132084 70.55767833 116.46655273 70.55761719 C115.32345568 70.55755587 115.32345568 70.55755587 114.15726575 70.55749331 C101.81110679 70.55708699 89.46497834 70.56665221 77.11882821 70.58075555 C64.44334816 70.59512085 51.76788299 70.60202562 39.09239459 70.60116178 C31.97555678 70.60082981 24.85875095 70.6035766 17.74192047 70.61433983 C11.04758739 70.62439908 4.35333304 70.62410786 -2.34100723 70.6168232 C-4.79883294 70.61577587 -7.25666283 70.618149 -9.71448135 70.62418365 C-13.06850281 70.63188558 -16.42228985 70.62727047 -19.77630615 70.61955261 C-20.74995267 70.62469618 -21.72359918 70.62983974 -22.72675014 70.63513917 C-32.8931124 70.58341187 -39.36522005 67.78877302 -47.31665039 61.37231445 C-51.31665039 57.08660017 -51.31665039 57.08660017 -51.31665039 54.37231445 C-51.97665039 54.37231445 -52.63665039 54.37231445 -53.31665039 54.37231445 C-57.6553798 43.97098547 -59.61463368 32.91651641 -55.81665039 21.99731445 C-51.69912999 13.31440301 -45.14421809 7.03316836 -36.31665039 3.37231445 C-24.50122719 -0.65782575 -12.31614339 -0.04480866 0 0 Z " fill="#04A696" transform="translate(542.316650390625,848.627685546875)"/>
<path d="M0 0 C1.19882812 -0.01611328 2.39765625 -0.03222656 3.6328125 -0.04882812 C14.70223187 -0.05483106 24.51266531 1.84976775 34.3125 7.0625 C35.32799927 7.59073364 35.32799927 7.59073364 36.36401367 8.12963867 C38.33774974 9.17048062 40.29609703 10.23496481 42.25 11.3125 C43.26578125 11.87066406 44.2815625 12.42882812 45.328125 13.00390625 C63.32557897 23.67382539 74.15931717 41.34070129 80.38671875 60.87890625 C85.56025038 82.80020601 80.40753419 105.32583263 69.25 124.3125 C57.66928098 142.4225387 41.59071895 152.97205968 21.25 159.3125 C20.34282227 159.64950928 19.43564453 159.98651855 18.50097656 160.33374023 C0.90343655 165.63176801 -21.13981422 161.40366301 -36.97265625 152.9453125 C-58.18902313 140.47211791 -71.52325416 122.75513003 -78.35205078 99.23925781 C-83.81250658 77.60238469 -79.16310969 56.00294135 -67.95117188 37.22070312 C-57.50334845 20.62310396 -40.66723073 7.67377097 -21.75 2.3125 C-20.60917969 1.95671875 -19.46835937 1.6009375 -18.29296875 1.234375 C-12.28131748 -0.23664343 -6.15235377 -0.0163279 0 0 Z " fill="#FCFEFE" transform="translate(748.75,237.6875)"/>
<path d="M0 0 C0.79535156 0.61875 1.59070313 1.2375 2.41015625 1.875 C3.33957031 2.57625 4.26898437 3.2775 5.2265625 4 C21.60227363 16.83321035 32.46142165 34.38591037 36.41015625 54.875 C36.79721658 59.03238726 36.84168388 63.13946898 36.78515625 67.3125 C36.77427979 68.41070068 36.76340332 69.50890137 36.75219727 70.64038086 C36.38782582 89.16557538 30.18829526 105.55827181 18.41015625 119.875 C17.81847656 120.64070312 17.22679687 121.40640625 16.6171875 122.1953125 C8.46435206 132.17340961 -2.67686523 139.22417318 -14.58984375 143.875 C-15.26144531 144.16890625 -15.93304687 144.4628125 -16.625 144.765625 C-25.79815977 148.60818063 -35.39377568 149.06022293 -45.21484375 149.125 C-46.08520264 149.13426514 -46.95556152 149.14353027 -47.85229492 149.15307617 C-68.02477225 149.05606567 -86.66547042 140.71127874 -100.91015625 126.64453125 C-119.1885966 107.75325689 -125.23641415 85.72858864 -124.9296875 59.9453125 C-124.35001509 41.70848174 -115.60577984 26.25638337 -103.58984375 12.875 C-102.97625 12.16730469 -102.36265625 11.45960938 -101.73046875 10.73046875 C-94.00261074 2.35862258 -83.26744718 -4.27317997 -72.58984375 -8.125 C-71.7184375 -8.49496094 -70.84703125 -8.86492187 -69.94921875 -9.24609375 C-47.77037671 -17.29846228 -19.25077365 -13.6677442 0 0 Z " fill="#FCFEFD" transform="translate(574.58984375,250.125)"/>
<path d="M0 0 C0.98239558 -0.00467997 1.96479116 -0.00935994 2.97695631 -0.01418173 C6.2362794 -0.02605314 9.49517587 -0.01670534 12.75450134 -0.00723267 C15.10440311 -0.01130182 17.45430296 -0.01664563 19.80419922 -0.02316284 C26.16356861 -0.03680041 32.52279144 -0.03155262 38.88216329 -0.02202559 C44.87144205 -0.01518417 50.8607076 -0.02041562 56.84998601 -0.02480717 C69.43366193 -0.03334506 82.0172721 -0.02355179 94.60093724 -0.00740607 C105.38197587 0.00599878 116.16291758 0.00366456 126.94395447 -0.01016235 C139.48656684 -0.02624116 152.02912172 -0.03252451 164.57174295 -0.02332556 C171.20286736 -0.01859362 177.83393785 -0.01800584 184.46505928 -0.02793503 C190.69909606 -0.03661829 196.93295027 -0.03055769 203.16696739 -0.01325226 C205.45099205 -0.00929489 207.73503214 -0.01040857 210.0190506 -0.01704025 C213.14400943 -0.02527524 216.26838835 -0.0149103 219.39331055 0 C220.29050641 -0.00669217 221.18770227 -0.01338433 222.11208588 -0.02027929 C233.48020512 0.08445652 242.19610845 3.76508495 250.63316345 11.38095093 C258.62657555 20.682666 259.30007052 30.47922478 258.63316345 42.38095093 C258.16901201 45.19787003 257.52107926 47.66170877 256.63316345 50.38095093 C255.97316345 50.38095093 255.31316345 50.38095093 254.63316345 50.38095093 C254.32378845 51.40188843 254.32378845 51.40188843 254.00816345 52.44345093 C250.115017 60.76062743 243.42824715 65.4714261 234.94553971 68.71222258 C226.58210409 71.13088887 217.30843362 70.30485861 208.69639587 70.22323608 C206.29516565 70.22617722 203.89393754 70.23216055 201.49272156 70.24093628 C195.67866521 70.25416319 189.86538141 70.23521562 184.051425 70.20094772 C177.26962881 70.16241065 170.48797499 70.16136203 163.7060881 70.16167729 C151.60260867 70.16099239 139.49945579 70.12699128 127.39610291 70.07382202 C115.67014599 70.02234274 103.94444003 69.99405307 92.21836853 69.99179077 C91.13379779 69.99157649 91.13379779 69.99157649 90.02731653 69.99135788 C88.94455678 69.99114995 88.94455678 69.99114995 87.83992308 69.99093783 C86.3863072 69.99064742 84.93269131 69.99034493 83.47907543 69.99003029 C82.76207992 69.98987525 82.0450844 69.9897202 81.30636175 69.98956046 C70.10112328 69.98611681 58.89592222 69.96057425 47.69072076 69.9331742 C43.63996053 69.92358761 39.58921197 69.9174453 35.53844216 69.91387363 C28.51330083 69.90766314 21.48842053 69.88635102 14.46337891 69.84832764 C12.13379417 69.8379862 9.80418082 69.8326643 7.47457314 69.83277512 C4.29027187 69.83200523 1.10659349 69.81274808 -2.0776062 69.78881836 C-3.45388183 69.79476389 -3.45388183 69.79476389 -4.857961 69.80082953 C-15.2127716 69.67732284 -22.84098903 66.49920902 -30.36683655 59.38095093 C-35.36683655 53.58841014 -35.36683655 53.58841014 -35.36683655 50.38095093 C-36.02683655 50.38095093 -36.68683655 50.38095093 -37.36683655 50.38095093 C-40.70069372 40.17101333 -40.90095133 28.78155568 -36.69496155 18.81454468 C-32.82219918 11.71827715 -26.68547027 5.27268731 -18.95883471 2.52447069 C-12.51609841 0.70495546 -6.67896449 -0.04994243 0 0 Z " fill="#03A696" transform="translate(530.3668365478516,944.6190490722656)"/>
<path d="M0 0 C1.27830185 -0.00630432 2.5566037 -0.01260864 3.87364197 -0.019104 C5.25633889 -0.01552349 6.63903456 -0.01142134 8.02172852 -0.00683594 C9.45370042 -0.00818495 10.88567187 -0.01012744 12.31764221 -0.01263428 C15.31255472 -0.0155754 18.30734755 -0.01132124 21.30224609 -0.00195312 C25.12634297 0.00943054 28.95015872 0.00288253 32.77424526 -0.00909805 C35.72978299 -0.01635292 38.68525496 -0.01401196 41.64079475 -0.00884247 C43.0500905 -0.00751545 44.45939236 -0.00912021 45.86868095 -0.01380157 C47.84474435 -0.01892526 49.82082888 -0.00972148 51.796875 0 C52.91795151 0.00159119 54.03902802 0.00318237 55.19407654 0.00482178 C63.59644317 0.65758661 71.91577761 4.18441286 78.27563477 9.69628906 C79.35844727 10.96472656 79.35844727 10.96472656 80.46313477 12.25878906 C81.32938477 13.18691406 82.19563477 14.11503906 83.08813477 15.07128906 C89.45357605 23.61438131 89.47212672 32.9949054 88.46313477 43.25878906 C86.85181347 52.04586118 82.16631469 58.47299612 75.46313477 64.25878906 C68.61667802 68.6192703 62.76909019 70.37448938 54.69433594 70.41992188 C53.68620094 70.42736923 53.68620094 70.42736923 52.65769958 70.43496704 C50.44049036 70.44953772 48.2233527 70.45638232 46.00610352 70.46191406 C44.45917256 70.46766996 42.91224161 70.47342764 41.36531067 70.47918701 C38.12309437 70.48968269 34.88090276 70.49553464 31.63867188 70.49902344 C27.49610562 70.50450343 23.35386882 70.52852669 19.21140575 70.55699539 C16.0156816 70.57567376 12.82003597 70.58083014 9.62426186 70.58235931 C8.0977225 70.58537494 6.57118417 70.59336647 5.04469872 70.60654449 C2.90292085 70.62371373 0.76193706 70.62169883 -1.37988281 70.61523438 C-3.20378288 70.62070282 -3.20378288 70.62070282 -5.06452942 70.62628174 C-14.77412773 69.59867195 -22.22910071 63.20601724 -28.31030273 55.96972656 C-30.45924923 52.97215151 -31.53686523 50.99488729 -31.53686523 47.25878906 C-32.19686523 47.25878906 -32.85686523 47.25878906 -33.53686523 47.25878906 C-35.90112067 40.16602277 -35.9024937 29.32756131 -33.03686523 22.32128906 C-31.91967773 20.30566406 -31.91967773 20.30566406 -30.53686523 18.25878906 C-29.69768555 16.99808594 -29.69768555 16.99808594 -28.84155273 15.71191406 C-21.75510195 6.01466563 -12.20223804 0.0173314 0 0 Z " fill="#04A696" transform="translate(612.536865234375,1038.7412109375)"/>
<path d="M0 0 C0.88292725 -0.01409912 1.76585449 -0.02819824 2.67553711 -0.04272461 C17.15825043 0.06415389 29.95791158 7.40636301 40.28125 17.1796875 C50.78653136 28.2839542 54.70959029 42.50115008 54.5234375 57.44921875 C54.16234306 64.56658019 52.16375422 70.9731927 47.375 76.375 C40.16973769 81.62606755 32.68197216 83.65673665 23.83984375 83.7890625 C23.01609253 83.80870056 22.19234131 83.82833862 21.34362793 83.84857178 C18.66668482 83.90933444 15.98976477 83.9558157 13.3125 84 C11.46427101 84.0345036 9.61604511 84.06917271 7.76782227 84.10400391 C4.05883339 84.17155182 0.34981049 84.23149348 -3.359375 84.28710938 C-7.38056316 84.34951845 -11.3998636 84.44229528 -15.41993713 84.55447388 C-18.67540655 84.64039865 -21.93141473 84.69302226 -25.1875 84.75 C-26.3432251 84.78818848 -27.4989502 84.82637695 -28.68969727 84.86572266 C-36.75897189 84.94690614 -41.6082742 83.26045308 -47.41040039 77.64794922 C-54.02852672 70.77694804 -55.11958759 63.16838152 -55 54 C-55.01160156 53.11828125 -55.02320313 52.2365625 -55.03515625 51.328125 C-54.97339931 37.28871494 -49.01999503 25.65661453 -39.4375 15.5625 C-27.70737364 4.44214765 -15.87120405 0.18639518 0 0 Z " fill="#04A696" transform="translate(574.625,743.625)"/>
<path d="M0 0 C0.92014893 0.01015137 1.84029785 0.02030273 2.78833008 0.03076172 C19.02236272 0.40144766 30.25105149 6.91146479 41.5625 18.375 C50.87617143 28.6859288 54.91773103 39.91172385 54.9375 53.75 C54.96199219 54.64460937 54.98648438 55.53921875 55.01171875 56.4609375 C55.04929094 65.07749419 52.37255624 72.44545635 46.38308716 78.76051331 C40.13413784 84.30204725 32.99364762 84.92149526 24.98828125 84.640625 C23.49667229 84.61370575 23.49667229 84.61370575 21.97492981 84.58624268 C19.88484127 84.54801029 17.7948844 84.50181851 15.70513916 84.44799805 C11.66048168 84.35404768 7.61708545 84.33520574 3.57150269 84.3157959 C-0.37831644 84.29059925 -4.32724216 84.2307957 -8.27661133 84.16748047 C-10.28205213 84.13882896 -12.28761516 84.11784116 -14.29321289 84.10400391 C-17.26504001 84.08250182 -20.23559233 84.03597159 -23.20703125 83.984375 C-24.53067436 83.98253204 -24.53067436 83.98253204 -25.88105774 83.98065186 C-34.87923346 83.77091241 -43.15330713 80.95844015 -49.4375 74.375 C-55.27218494 65.31341534 -55.80424647 54.22764193 -53.6875 43.8125 C-53.29654382 42.32633096 -52.87837926 40.84713132 -52.4375 39.375 C-52.19257812 38.51261719 -51.94765625 37.65023437 -51.6953125 36.76171875 C-47.45003476 23.4811375 -37.80436674 12.01295803 -25.4375 5.5 C-17.18894059 1.523016 -9.11181382 -0.14608455 0 0 Z " fill="#04A696" transform="translate(705.4375,743.625)"/>
<path d="M0 0 C7.36216258 4.87889346 14.14054328 12.1078337 16.3046875 20.87109375 C18.32715162 33.37843763 16.35514104 42.16978725 9.3671875 52.7109375 C4.53466526 59.03463803 -3.16053772 63.85537701 -10.99609375 65.375 C-22.33429693 66.63261699 -30.99796041 65.38595409 -40.5 58.9375 C-44.80613709 55.49085398 -47.49663657 51.34970648 -50.25 46.625 C-50.66507813 46.02171875 -51.08015625 45.4184375 -51.5078125 44.796875 C-55.52355819 38.33798333 -55.01112853 30.96227901 -54.25 23.625 C-51.55905134 12.3669495 -45.83755294 4.98064158 -36.25 -1.375 C-24.16482293 -7.69104875 -11.57123399 -6.84343503 0 0 Z " fill="#06A797" transform="translate(762.25,306.375)"/>
<path d="M0 0 C0.89380371 0.00974854 1.78760742 0.01949707 2.70849609 0.02954102 C13.66842388 0.32470066 20.10752142 3.46373716 28.05078125 11.0703125 C35.7783623 19.38809956 37.89979296 28.22989144 37.765625 39.5 C36.59310174 48.453814 31.67991724 55.35459416 25.25 61.4375 C24.69957031 61.99695313 24.14914062 62.55640625 23.58203125 63.1328125 C17.37531547 68.97255023 10.58018821 70.56847875 2.1875 70.75 C-9.03315917 70.37741106 -16.85045625 67.61851053 -24.796875 59.29296875 C-26.60895886 57.08207156 -28.20751455 54.84328633 -29.75 52.4375 C-30.18441406 51.76203125 -30.61882812 51.0865625 -31.06640625 50.390625 C-35.35299015 42.44476216 -35.12459657 32.09405717 -32.625 23.5625 C-28.56038727 13.55150939 -22.11229978 7.40928656 -13.078125 1.76953125 C-8.63684478 -0.00802339 -4.74181841 -0.05702914 0 0 Z " fill="#06A797" transform="translate(534.75,301.5625)"/>
<path d="M0 0 C0.66 0.33 1.32 0.66 2 1 C-4.93 7.93 -11.86 14.86 -19 22 C-19.66 21.67 -20.32 21.34 -21 21 C-18.81898323 18.61897733 -16.62901221 16.24636275 -14.4375 13.875 C-13.82841797 13.20984375 -13.21933594 12.5446875 -12.59179688 11.859375 C-8.62183598 7.57433784 -4.50383106 3.72131215 0 0 Z " fill="#2EB5A8" transform="translate(448,214)"/>
<path d="M0 0 C0.66 0.33 1.32 0.66 2 1 C-3.61 6.61 -9.22 12.22 -15 18 C-15.66 17.67 -16.32 17.34 -17 17 C-15.10858512 14.91250542 -13.21212032 12.8300063 -11.3125 10.75 C-10.78205078 10.16347656 -10.25160156 9.57695312 -9.70507812 8.97265625 C-6.66812306 5.6562268 -3.61365652 2.70856629 0 0 Z " fill="#D5F0ED" transform="translate(701,253)"/>
<path d="M0 0 C0.66 0.33 1.32 0.66 2 1 C-2.29 5.29 -6.58 9.58 -11 14 C-11.66 13.67 -12.32 13.34 -13 13 C-11.625 11 -11.625 11 -10 9 C-9.34 9 -8.68 9 -8 9 C-7.79375 8.443125 -7.5875 7.88625 -7.375 7.3125 C-5.44999226 4.07498698 -2.96149098 2.31768859 0 0 Z " fill="#35B7AA" transform="translate(414,417)"/>
<path d="M0 0 C0.66 0.33 1.32 0.66 2 1 C0.54782324 2.50596108 -0.91192861 4.00462104 -2.375 5.5 C-3.18710937 6.3353125 -3.99921875 7.170625 -4.8359375 8.03125 C-7 10 -7 10 -9 10 C-7.61811547 6.78956118 -6.07578097 4.95063635 -3.375 2.75 C-2.74335938 2.22921875 -2.11171875 1.7084375 -1.4609375 1.171875 C-0.73777344 0.59179688 -0.73777344 0.59179688 0 0 Z " fill="#36B8AB" transform="translate(500,855)"/>
<path d="M0 0 C0.66 0.33 1.32 0.66 2 1 C-1.3 4.3 -4.6 7.6 -8 11 C-8.66 10.67 -9.32 10.34 -10 10 C-3.84965831 2.51708428 -3.84965831 2.51708428 0 0 Z " fill="#34B7AA" transform="translate(517,306)"/>
<path d="M0 0 C0.66 0.33 1.32 0.66 2 1 C0.54782324 2.50596108 -0.91192861 4.00462104 -2.375 5.5 C-3.18710937 6.3353125 -3.99921875 7.170625 -4.8359375 8.03125 C-7 10 -7 10 -9 10 C-7.61811547 6.78956118 -6.07578097 4.95063635 -3.375 2.75 C-2.74335938 2.22921875 -2.11171875 1.7084375 -1.4609375 1.171875 C-0.73777344 0.59179688 -0.73777344 0.59179688 0 0 Z " fill="#37B8AC" transform="translate(506,950)"/>
<path d="M0 0 C0.66 0.33 1.32 0.66 2 1 C-1.3 4.3 -4.6 7.6 -8 11 C-8.66 10.67 -9.32 10.34 -10 10 C-8.90033225 8.70450101 -7.79508199 7.41373929 -6.6875 6.125 C-6.07261719 5.40570312 -5.45773437 4.68640625 -4.82421875 3.9453125 C-3 2 -3 2 0 0 Z " fill="#24B1A3" transform="translate(593,1045)"/>
</svg>
