<svg version="1.1" id="Layer_1" xmlns="http://www.w3.org/2000/svg" xmlns:xlink="http://www.w3.org/1999/xlink" x="0px" y="0px"
	 width="100%" viewBox="0 0 1280 1280" enable-background="new 0 0 1280 1280" xml:space="preserve">
<path fill="#000000" opacity="1.000000" stroke="none" 
	d="
M721.000000,1281.000000 
	C480.666656,1281.000000 240.833328,1281.000000 1.000000,1281.000000 
	C1.000000,854.333313 1.000000,427.666656 1.000000,1.000000 
	C427.666656,1.000000 854.333313,1.000000 1281.000000,1.000000 
	C1281.000000,427.666656 1281.000000,854.333313 1281.000000,1281.000000 
	C1094.500000,1281.000000 908.000000,1281.000000 721.000000,1281.000000 
M932.336121,648.867249 
	C935.253357,633.764343 938.725281,618.742004 940.935303,603.536316 
	C943.250122,587.609619 945.019653,571.538513 945.782471,555.471436 
	C946.433960,541.748352 945.733765,527.915466 944.867798,514.179321 
	C944.073181,501.573303 943.357117,488.791168 940.670349,476.510193 
	C934.588745,448.711517 925.447937,422.045135 905.901306,400.227783 
	C905.006226,399.228790 904.652771,396.700775 905.273560,395.542145 
	C916.774170,374.079407 921.858276,350.836151 922.681824,326.874786 
	C923.171570,312.623535 922.373169,297.968628 919.502808,284.041595 
	C914.635437,260.424988 905.468323,238.236389 890.340881,218.980560 
	C888.770203,216.981171 888.764465,215.396469 890.501160,213.373917 
	C893.953613,209.353226 897.229248,205.168854 900.394287,200.915436 
	C910.722107,187.035828 919.684326,173.162155 918.372681,154.166855 
	C917.259033,138.040527 910.567139,126.224831 897.608948,118.182678 
	C880.144287,107.343742 862.237122,108.371124 844.221680,118.235832 
	C833.865479,123.906578 823.100281,129.477478 811.831299,132.649490 
	C800.889893,135.729324 789.098694,136.097672 777.627808,136.912933 
	C762.443604,137.992096 747.123352,137.583328 732.021301,139.256088 
	C719.889343,140.599899 707.692566,143.138245 696.062195,146.837006 
	C675.999512,153.217453 657.710022,163.457703 641.044067,176.164062 
	C636.774170,173.117157 632.845337,170.099747 628.710510,167.397491 
	C599.242249,148.138611 566.767395,138.392792 531.696167,137.056686 
	C519.429077,136.589371 507.129608,136.708405 494.888855,135.896927 
	C486.083618,135.313202 476.948059,134.855011 468.686218,132.134766 
	C457.846405,128.565674 447.289459,123.569923 437.400970,117.827240 
	C425.820892,111.102173 413.411285,108.908760 401.066956,111.460350 
	C363.369324,119.252510 354.833954,159.029205 371.385529,185.366623 
	C377.282745,194.750458 384.262756,203.466110 390.956177,212.329971 
	C393.064453,215.121933 393.306244,216.957291 391.004608,219.993530 
	C386.915802,225.387451 383.210114,231.163284 380.045929,237.150269 
	C368.414948,259.157257 361.432800,282.362732 359.731537,307.481171 
	C358.571869,324.602783 359.827423,341.358917 363.481262,357.764648 
	C366.576691,371.663239 372.327393,384.970459 377.177917,399.354309 
	C362.146759,414.699249 353.437683,435.094910 346.553009,456.249023 
	C339.552551,477.758972 337.197205,500.243042 336.258087,522.703308 
	C335.557922,539.448914 336.688995,556.275024 337.130371,573.062012 
	C337.265259,578.191101 337.344147,583.395752 338.261444,588.417297 
	C341.943390,608.573364 345.145203,628.867188 350.020752,648.743042 
	C356.761841,676.223877 366.592957,702.640015 379.833496,727.834351 
	C392.733490,752.380859 408.166107,774.723816 429.924530,792.202637 
	C445.060425,804.361450 462.019775,812.506287 481.778412,814.439575 
	C484.020599,819.811829 483.808167,819.817139 480.915497,822.115540 
	C475.213806,826.645752 469.148315,830.924866 464.284576,836.265259 
	C447.717072,854.456299 442.959656,876.294495 447.028229,900.030151 
	C449.412292,913.938965 456.069031,926.135681 465.435913,936.337891 
	C448.088257,964.484802 445.293549,993.244141 463.539307,1021.210938 
	C481.732513,1049.097412 509.084747,1059.073853 542.070251,1054.266235 
	C539.104431,1066.552612 539.243103,1078.037231 540.779907,1089.384399 
	C543.135864,1106.780029 552.669006,1120.329590 565.330383,1131.963501 
	C577.042725,1142.725342 590.918152,1148.556519 606.687500,1148.848877 
	C629.677246,1149.275269 652.680786,1148.968262 675.678406,1148.949951 
	C677.671997,1148.948364 679.701904,1148.978516 681.653198,1148.638794 
	C698.205200,1145.757324 712.196838,1138.306519 723.355957,1125.552612 
	C734.915710,1112.340942 742.499146,1097.617310 741.974915,1079.570679 
	C741.738159,1071.418823 741.430420,1063.269165 741.130615,1054.400146 
	C773.288757,1059.018066 800.571594,1049.015137 818.691467,1021.090881 
	C836.865417,993.083496 833.905945,964.307800 816.831848,936.415222 
	C829.730713,921.061157 836.878052,903.837585 836.232849,883.072266 
	C835.654297,864.451660 829.067444,848.954224 817.213074,835.137085 
	C816.059875,833.792969 815.131897,831.683167 815.196228,829.969910 
	C815.426025,823.846191 816.128479,817.740295 816.683105,811.266235 
	C835.018005,805.705505 850.619507,795.135742 864.333374,781.498657 
	C883.645325,762.294922 897.368958,739.313904 908.875488,714.957520 
	C918.775146,694.002380 926.281616,672.117004 932.336121,648.867249 
z"/>
<path fill="#FDFEFE" opacity="1.000000" stroke="none" 
	d="
M932.172241,649.254639 
	C926.281616,672.117004 918.775146,694.002380 908.875488,714.957520 
	C897.368958,739.313904 883.645325,762.294922 864.333374,781.498657 
	C850.619507,795.135742 835.018005,805.705505 816.683105,811.266235 
	C816.128479,817.740295 815.426025,823.846191 815.196228,829.969910 
	C815.131897,831.683167 816.059875,833.792969 817.213074,835.137085 
	C829.067444,848.954224 835.654297,864.451660 836.232849,883.072266 
	C836.878052,903.837585 829.730713,921.061157 816.831848,936.415222 
	C833.905945,964.307800 836.865417,993.083496 818.691467,1021.090881 
	C800.571594,1049.015137 773.288757,1059.018066 741.130615,1054.400146 
	C741.430420,1063.269165 741.738159,1071.418823 741.974915,1079.570679 
	C742.499146,1097.617310 734.915710,1112.340942 723.355957,1125.552612 
	C712.196838,1138.306519 698.205200,1145.757324 681.653198,1148.638794 
	C679.701904,1148.978516 677.671997,1148.948364 675.678406,1148.949951 
	C652.680786,1148.968262 629.677246,1149.275269 606.687500,1148.848877 
	C590.918152,1148.556519 577.042725,1142.725342 565.330383,1131.963501 
	C552.669006,1120.329590 543.135864,1106.780029 540.779907,1089.384399 
	C539.243103,1078.037231 539.104431,1066.552612 542.070251,1054.266235 
	C509.084747,1059.073853 481.732513,1049.097412 463.539307,1021.210938 
	C445.293549,993.244141 448.088257,964.484802 465.435913,936.337891 
	C456.069031,926.135681 449.412292,913.938965 447.028229,900.030151 
	C442.959656,876.294495 447.717072,854.456299 464.284576,836.265259 
	C469.148315,830.924866 475.213806,826.645752 480.915497,822.115540 
	C483.808167,819.817139 484.020599,819.811829 481.778412,814.439575 
	C462.019775,812.506287 445.060425,804.361450 429.924530,792.202637 
	C408.166107,774.723816 392.733490,752.380859 379.833496,727.834351 
	C366.592957,702.640015 356.761841,676.223877 350.020752,648.743042 
	C345.145203,628.867188 341.943390,608.573364 338.261444,588.417297 
	C337.344147,583.395752 337.265259,578.191101 337.130371,573.062012 
	C336.688995,556.275024 335.557922,539.448914 336.258087,522.703308 
	C337.197205,500.243042 339.552551,477.758972 346.553009,456.249023 
	C353.437683,435.094910 362.146759,414.699249 377.177917,399.354309 
	C372.327393,384.970459 366.576691,371.663239 363.481262,357.764648 
	C359.827423,341.358917 358.571869,324.602783 359.731537,307.481171 
	C361.432800,282.362732 368.414948,259.157257 380.045929,237.150269 
	C383.210114,231.163284 386.915802,225.387451 391.004608,219.993530 
	C393.306244,216.957291 393.064453,215.121933 390.956177,212.329971 
	C384.262756,203.466110 377.282745,194.750458 371.385529,185.366623 
	C354.833954,159.029205 363.369324,119.252510 401.066956,111.460350 
	C413.411285,108.908760 425.820892,111.102173 437.400970,117.827240 
	C447.289459,123.569923 457.846405,128.565674 468.686218,132.134766 
	C476.948059,134.855011 486.083618,135.313202 494.888855,135.896927 
	C507.129608,136.708405 519.429077,136.589371 531.696167,137.056686 
	C566.767395,138.392792 599.242249,148.138611 628.710510,167.397491 
	C632.845337,170.099747 636.774170,173.117157 641.044067,176.164062 
	C657.710022,163.457703 675.999512,153.217453 696.062195,146.837006 
	C707.692566,143.138245 719.889343,140.599899 732.021301,139.256088 
	C747.123352,137.583328 762.443604,137.992096 777.627808,136.912933 
	C789.098694,136.097672 800.889893,135.729324 811.831299,132.649490 
	C823.100281,129.477478 833.865479,123.906578 844.221680,118.235832 
	C862.237122,108.371124 880.144287,107.343742 897.608948,118.182678 
	C910.567139,126.224831 917.259033,138.040527 918.372681,154.166855 
	C919.684326,173.162155 910.722107,187.035828 900.394287,200.915436 
	C897.229248,205.168854 893.953613,209.353226 890.501160,213.373917 
	C888.764465,215.396469 888.770203,216.981171 890.340881,218.980560 
	C905.468323,238.236389 914.635437,260.424988 919.502808,284.041595 
	C922.373169,297.968628 923.171570,312.623535 922.681824,326.874786 
	C921.858276,350.836151 916.774170,374.079407 905.273560,395.542145 
	C904.652771,396.700775 905.006226,399.228790 905.901306,400.227783 
	C925.447937,422.045135 934.588745,448.711517 940.670349,476.510193 
	C943.357117,488.791168 944.073181,501.573303 944.867798,514.179321 
	C945.733765,527.915466 946.433960,541.748352 945.782471,555.471436 
	C945.019653,571.538513 943.250122,587.609619 940.935303,603.536316 
	C938.725281,618.742004 935.253357,633.764343 932.172241,649.254639 
M427.775757,401.707550 
	C430.254333,404.698120 432.732910,407.688721 434.893372,410.295502 
	C429.184570,412.558624 423.552490,414.163513 418.541992,416.904633 
	C407.138550,423.143158 399.931183,433.400940 394.259247,444.709320 
	C381.912933,469.324615 377.647003,495.901367 376.191895,523.023254 
	C374.060638,562.747986 378.989624,601.786194 388.984711,640.176636 
	C396.863037,670.436829 408.040070,699.424438 424.851624,725.980469 
	C435.183624,742.301208 447.185486,757.172852 464.009735,767.303833 
	C478.173370,775.832703 493.005096,778.149719 508.109985,769.806396 
	C518.484131,764.076111 525.612854,755.035706 531.193054,744.800781 
	C544.756165,719.924194 549.260437,692.712646 550.877808,664.930908 
	C553.267334,623.886108 548.377686,583.538269 537.657593,543.909668 
	C528.911743,511.579102 516.636230,480.748291 497.533600,452.957520 
	C496.276459,451.128662 495.083099,449.256012 493.058197,446.189301 
	C515.122620,452.328430 536.055298,453.347992 557.149963,449.205231 
	C578.426025,445.026886 597.449951,435.884705 614.791565,422.311554 
	C615.410645,423.895294 615.759949,424.971954 616.239319,425.987213 
	C622.125732,438.454407 627.761292,451.050934 634.044678,463.315308 
	C637.232239,469.536926 644.274292,469.289032 648.050232,463.363403 
	C649.749146,460.697357 651.467896,458.010559 652.821533,455.163818 
	C657.872986,444.540741 662.776978,433.847534 667.914062,422.798248 
	C684.519470,435.945038 703.589600,444.970032 724.844971,449.212036 
	C745.961609,453.426331 766.930725,452.156830 787.849548,446.609436 
	C780.854431,458.687073 773.682068,469.733582 767.822083,481.437225 
	C749.614868,517.800476 739.168457,556.517212 733.911377,596.760193 
	C729.484436,630.649048 728.877197,664.473938 735.111938,698.182922 
	C739.145020,719.988403 745.668152,740.840210 760.172302,758.385803 
	C772.864685,773.739624 791.040649,778.673645 809.535706,771.467529 
	C819.833740,767.455139 828.289429,760.774048 835.929688,753.006348 
	C855.544128,733.064514 868.536865,708.937256 878.804016,683.308838 
	C896.232422,639.804932 904.981689,594.451477 906.105408,547.631836 
	C906.805176,518.477661 904.622620,489.581635 894.869324,461.877899 
	C886.475037,438.034393 875.191345,416.315735 846.581116,410.838318 
	C872.998352,381.338470 885.669250,347.300995 882.208740,307.929291 
	C878.731262,268.364716 860.142578,236.971466 828.935059,212.655670 
	C829.477844,212.188416 829.698242,211.912643 829.984619,211.764069 
	C850.889404,200.918472 864.670715,183.078995 877.080139,163.875198 
	C879.503418,160.125122 880.226562,156.367569 876.873047,152.944778 
	C873.546204,149.549194 869.758667,150.165665 865.906860,152.355057 
	C862.143799,154.493988 858.275940,156.452972 854.416077,158.416412 
	C843.285950,164.078232 832.358276,170.717178 819.701843,171.957062 
	C798.009766,174.082092 776.260376,175.918762 754.491028,176.896484 
	C709.513428,178.916519 671.962402,196.031311 642.326965,230.119202 
	C641.933960,230.571259 641.328613,230.838684 640.723450,231.261337 
	C640.017029,230.462814 639.468567,229.853043 638.931030,229.233704 
	C617.017151,203.984329 589.783813,186.935776 557.040833,180.836243 
	C537.526245,177.200958 517.288635,177.405426 497.367523,176.005020 
	C475.040558,174.435501 452.765106,172.834808 432.752716,161.126801 
	C427.152618,157.850525 421.244080,155.104843 415.517090,152.040878 
	C411.748077,150.024460 408.099945,149.775665 405.020569,153.052750 
	C401.926117,156.345917 402.214478,160.120102 404.780640,163.551331 
	C412.152588,173.408310 418.944733,183.839294 427.341187,192.747269 
	C434.640381,200.491135 443.816132,206.466217 452.000885,213.092072 
	C390.025299,257.585571 383.462860,346.510071 427.775757,401.707550 
M705.492065,850.227661 
	C646.875122,850.180664 588.258240,850.114807 529.641296,850.125366 
	C525.325562,850.126160 520.979492,850.448059 516.699463,851.013367 
	C497.468140,853.553345 484.888550,868.805786 485.891968,888.175476 
	C486.800293,905.709290 501.538116,919.655884 520.089844,920.054871 
	C534.563049,920.366089 549.047302,920.163147 563.526672,920.184509 
	C602.661987,920.242371 641.797363,920.340820 680.932678,920.339783 
	C707.736511,920.339050 734.543213,920.414917 761.343140,920.048218 
	C780.592651,919.784851 795.368835,905.725708 796.126282,887.743835 
	C796.957520,868.011414 783.988037,852.353455 763.866516,851.059631 
	C744.801147,849.833679 725.618713,850.429688 705.492065,850.227661 
M633.975464,1015.555542 
	C643.134460,1015.470276 652.293457,1015.323486 661.452515,1015.310791 
	C692.946472,1015.267029 724.443115,1015.518005 755.933594,1015.179199 
	C782.490173,1014.893494 798.766357,987.242676 786.154114,964.175659 
	C778.937866,950.977478 767.093079,945.837158 752.474915,945.853455 
	C705.986023,945.905212 659.497070,945.862915 613.008118,945.879211 
	C583.847473,945.889465 554.682556,945.649109 525.527771,946.080261 
	C507.803894,946.342346 493.451233,959.839661 491.909943,976.449768 
	C490.181091,995.081177 501.196808,1010.729126 519.139404,1014.471130 
	C523.803162,1015.443726 528.748413,1015.255737 533.565552,1015.272766 
	C566.724548,1015.390076 599.883972,1015.420288 633.975464,1015.555542 
M570.177063,828.603882 
	C581.174011,828.420471 592.205566,828.715088 603.158325,827.921631 
	C614.509705,827.099243 625.555054,822.641602 627.787903,811.985168 
	C629.186279,805.311279 629.856323,798.133850 629.032654,791.405212 
	C625.204956,760.139526 594.942627,739.143616 564.063721,745.779907 
	C536.026428,751.805420 517.884766,776.840820 520.880249,805.373047 
	C522.484375,820.653259 533.316528,829.860291 548.741394,829.182190 
	C555.566162,828.882202 562.400452,828.800781 570.177063,828.603882 
M761.196228,793.698792 
	C757.227844,758.805176 723.706848,736.835205 690.183533,747.156555 
	C668.936035,753.698242 653.497620,773.289368 652.106384,795.475769 
	C650.756714,816.998230 660.989258,827.851990 682.507568,828.110107 
	C700.002441,828.319946 717.494751,828.806152 734.985718,829.262756 
	C743.207520,829.477417 749.674866,826.472656 755.061890,820.144653 
	C761.524841,812.552734 761.359436,803.669617 761.196228,793.698792 
M647.500000,1110.171875 
	C656.641296,1109.982910 665.951355,1110.833252 674.887878,1109.382690 
	C692.029480,1106.600586 703.832397,1090.606689 702.859131,1073.303345 
	C701.859314,1055.526245 688.102661,1041.249268 669.437561,1040.443481 
	C650.503540,1039.626099 631.475525,1039.584961 612.545776,1040.450928 
	C592.740845,1041.357178 578.568481,1057.321655 579.106934,1076.315796 
	C579.651855,1095.536255 594.812622,1109.887085 615.047363,1110.160522 
	C625.529663,1110.302124 636.015686,1110.177734 647.500000,1110.171875 
z"/>
<path fill="#04A697" opacity="1.000000" stroke="none" 
	d="
M427.552643,401.429565 
	C383.462860,346.510071 390.025299,257.585571 452.000885,213.092072 
	C443.816132,206.466217 434.640381,200.491135 427.341187,192.747269 
	C418.944733,183.839294 412.152588,173.408310 404.780640,163.551331 
	C402.214478,160.120102 401.926117,156.345917 405.020569,153.052750 
	C408.099945,149.775665 411.748077,150.024460 415.517090,152.040878 
	C421.244080,155.104843 427.152618,157.850525 432.752716,161.126801 
	C452.765106,172.834808 475.040558,174.435501 497.367523,176.005020 
	C517.288635,177.405426 537.526245,177.200958 557.040833,180.836243 
	C589.783813,186.935776 617.017151,203.984329 638.931030,229.233704 
	C639.468567,229.853043 640.017029,230.462814 640.723450,231.261337 
	C641.328613,230.838684 641.933960,230.571259 642.326965,230.119202 
	C671.962402,196.031311 709.513428,178.916519 754.491028,176.896484 
	C776.260376,175.918762 798.009766,174.082092 819.701843,171.957062 
	C832.358276,170.717178 843.285950,164.078232 854.416077,158.416412 
	C858.275940,156.452972 862.143799,154.493988 865.906860,152.355057 
	C869.758667,150.165665 873.546204,149.549194 876.873047,152.944778 
	C880.226562,156.367569 879.503418,160.125122 877.080139,163.875198 
	C864.670715,183.078995 850.889404,200.918472 829.984619,211.764069 
	C829.698242,211.912643 829.477844,212.188416 828.935059,212.655670 
	C860.142578,236.971466 878.731262,268.364716 882.208740,307.929291 
	C885.669250,347.300995 872.998352,381.338470 846.581116,410.838318 
	C875.191345,416.315735 886.475037,438.034393 894.869324,461.877899 
	C904.622620,489.581635 906.805176,518.477661 906.105408,547.631836 
	C904.981689,594.451477 896.232422,639.804932 878.804016,683.308838 
	C868.536865,708.937256 855.544128,733.064514 835.929688,753.006348 
	C828.289429,760.774048 819.833740,767.455139 809.535706,771.467529 
	C791.040649,778.673645 772.864685,773.739624 760.172302,758.385803 
	C745.668152,740.840210 739.145020,719.988403 735.111938,698.182922 
	C728.877197,664.473938 729.484436,630.649048 733.911377,596.760193 
	C739.168457,556.517212 749.614868,517.800476 767.822083,481.437225 
	C773.682068,469.733582 780.854431,458.687073 787.849548,446.609436 
	C766.930725,452.156830 745.961609,453.426331 724.844971,449.212036 
	C703.589600,444.970032 684.519470,435.945038 667.914062,422.798248 
	C662.776978,433.847534 657.872986,444.540741 652.821533,455.163818 
	C651.467896,458.010559 649.749146,460.697357 648.050232,463.363403 
	C644.274292,469.289032 637.232239,469.536926 634.044678,463.315308 
	C627.761292,451.050934 622.125732,438.454407 616.239319,425.987213 
	C615.759949,424.971954 615.410645,423.895294 614.791565,422.311554 
	C597.449951,435.884705 578.426025,445.026886 557.149963,449.205231 
	C536.055298,453.347992 515.122620,452.328430 493.058197,446.189301 
	C495.083099,449.256012 496.276459,451.128662 497.533600,452.957520 
	C516.636230,480.748291 528.911743,511.579102 537.657593,543.909668 
	C548.377686,583.538269 553.267334,623.886108 550.877808,664.930908 
	C549.260437,692.712646 544.756165,719.924194 531.193054,744.800781 
	C525.612854,755.035706 518.484131,764.076111 508.109985,769.806396 
	C493.005096,778.149719 478.173370,775.832703 464.009735,767.303833 
	C447.185486,757.172852 435.183624,742.301208 424.851624,725.980469 
	C408.040070,699.424438 396.863037,670.436829 388.984711,640.176636 
	C378.989624,601.786194 374.060638,562.747986 376.191895,523.023254 
	C377.647003,495.901367 381.912933,469.324615 394.259247,444.709320 
	C399.931183,433.400940 407.138550,423.143158 418.541992,416.904633 
	C423.552490,414.163513 429.184570,412.558624 434.893372,410.295502 
	C432.732910,407.688721 430.254333,404.698120 427.552643,401.429565 
M583.669495,257.824066 
	C558.299438,237.618301 530.124634,232.550659 500.266418,245.112396 
	C469.848297,257.909698 453.221375,281.858307 450.776245,314.926270 
	C446.834351,368.235992 497.984711,411.272858 549.903137,398.147095 
	C581.533386,390.150482 602.248108,369.944794 609.847473,338.226685 
	C617.350647,306.910339 607.924744,280.063232 583.669495,257.824066 
M807.506104,377.005249 
	C826.316711,357.756897 834.619263,334.572266 830.560364,308.099304 
	C825.557068,275.466400 806.754944,252.818008 775.320374,242.709625 
	C744.108643,232.672867 715.606323,239.757004 692.735901,263.342407 
	C669.878479,286.914368 663.738037,315.530121 674.526978,346.525024 
	C693.944092,402.307373 762.946838,418.178772 807.506104,377.005249 
z"/>
<path fill="#05A797" opacity="1.000000" stroke="none" 
	d="
M705.989868,850.226074 
	C725.618713,850.429688 744.801147,849.833679 763.866516,851.059631 
	C783.988037,852.353455 796.957520,868.011414 796.126282,887.743835 
	C795.368835,905.725708 780.592651,919.784851 761.343140,920.048218 
	C734.543213,920.414917 707.736511,920.339050 680.932678,920.339783 
	C641.797363,920.340820 602.661987,920.242371 563.526672,920.184509 
	C549.047302,920.163147 534.563049,920.366089 520.089844,920.054871 
	C501.538116,919.655884 486.800293,905.709290 485.891968,888.175476 
	C484.888550,868.805786 497.468140,853.553345 516.699463,851.013367 
	C520.979492,850.448059 525.325562,850.126160 529.641296,850.125366 
	C588.258240,850.114807 646.875122,850.180664 705.989868,850.226074 
z"/>
<path fill="#04A696" opacity="1.000000" stroke="none" 
	d="
M633.509338,1015.516968 
	C599.883972,1015.420288 566.724548,1015.390076 533.565552,1015.272766 
	C528.748413,1015.255737 523.803162,1015.443726 519.139404,1014.471130 
	C501.196808,1010.729126 490.181091,995.081177 491.909943,976.449768 
	C493.451233,959.839661 507.803894,946.342346 525.527771,946.080261 
	C554.682556,945.649109 583.847473,945.889465 613.008118,945.879211 
	C659.497070,945.862915 705.986023,945.905212 752.474915,945.853455 
	C767.093079,945.837158 778.937866,950.977478 786.154114,964.175659 
	C798.766357,987.242676 782.490173,1014.893494 755.933594,1015.179199 
	C724.443115,1015.518005 692.946472,1015.267029 661.452515,1015.310791 
	C652.293457,1015.323486 643.134460,1015.470276 633.509338,1015.516968 
z"/>
<path fill="#05A797" opacity="1.000000" stroke="none" 
	d="
M569.703735,828.611938 
	C562.400452,828.800781 555.566162,828.882202 548.741394,829.182190 
	C533.316528,829.860291 522.484375,820.653259 520.880249,805.373047 
	C517.884766,776.840820 536.026428,751.805420 564.063721,745.779907 
	C594.942627,739.143616 625.204956,760.139526 629.032654,791.405212 
	C629.856323,798.133850 629.186279,805.311279 627.787903,811.985168 
	C625.555054,822.641602 614.509705,827.099243 603.158325,827.921631 
	C592.205566,828.715088 581.174011,828.420471 569.703735,828.611938 
z"/>
<path fill="#05A797" opacity="1.000000" stroke="none" 
	d="
M761.209167,794.173889 
	C761.359436,803.669617 761.524841,812.552734 755.061890,820.144653 
	C749.674866,826.472656 743.207520,829.477417 734.985718,829.262756 
	C717.494751,828.806152 700.002441,828.319946 682.507568,828.110107 
	C660.989258,827.851990 650.756714,816.998230 652.106384,795.475769 
	C653.497620,773.289368 668.936035,753.698242 690.183533,747.156555 
	C723.706848,736.835205 757.227844,758.805176 761.209167,794.173889 
z"/>
<path fill="#05A797" opacity="1.000000" stroke="none" 
	d="
M647.000000,1110.172607 
	C636.015686,1110.177734 625.529663,1110.302124 615.047363,1110.160522 
	C594.812622,1109.887085 579.651855,1095.536255 579.106934,1076.315796 
	C578.568481,1057.321655 592.740845,1041.357178 612.545776,1040.450928 
	C631.475525,1039.584961 650.503540,1039.626099 669.437561,1040.443481 
	C688.102661,1041.249268 701.859314,1055.526245 702.859131,1073.303345 
	C703.832397,1090.606689 692.029480,1106.600586 674.887878,1109.382690 
	C665.951355,1110.833252 656.641296,1109.982910 647.000000,1110.172607 
z"/>
<path fill="#FDFEFE" opacity="1.000000" stroke="none" 
	d="
M583.947266,258.043701 
	C607.924744,280.063232 617.350647,306.910339 609.847473,338.226685 
	C602.248108,369.944794 581.533386,390.150482 549.903137,398.147095 
	C497.984711,411.272858 446.834351,368.235992 450.776245,314.926270 
	C453.221375,281.858307 469.848297,257.909698 500.266418,245.112396 
	C530.124634,232.550659 558.299438,237.618301 583.947266,258.043701 
M535.686768,372.999725 
	C540.426758,372.268463 545.379272,372.179474 549.869446,370.693390 
	C568.091980,364.662170 577.511475,343.394836 570.489136,324.935913 
	C563.516174,306.606903 542.187195,297.186371 524.505249,304.625824 
	C509.147858,311.087280 500.068848,326.190399 502.255066,341.639526 
	C504.738647,359.190247 516.659790,370.667328 535.686768,372.999725 
z"/>
<path fill="#FDFEFE" opacity="1.000000" stroke="none" 
	d="
M807.259949,377.262390 
	C762.946838,418.178772 693.944092,402.307373 674.526978,346.525024 
	C663.738037,315.530121 669.878479,286.914368 692.735901,263.342407 
	C715.606323,239.757004 744.108643,232.672867 775.320374,242.709625 
	C806.754944,252.818008 825.557068,275.466400 830.560364,308.099304 
	C834.619263,334.572266 826.316711,357.756897 807.259949,377.262390 
M724.055969,366.500946 
	C728.763367,368.494568 733.303284,371.200470 738.208252,372.353790 
	C755.912415,376.516602 775.427368,363.565613 779.007935,345.734650 
	C783.051575,325.597656 770.919922,306.380676 752.004883,302.960876 
	C735.155273,299.914520 719.270325,307.712830 712.553040,322.328735 
	C705.292053,338.127747 709.468750,354.848450 724.055969,366.500946 
z"/>
<path fill="#06A797" opacity="1.000000" stroke="none" 
	d="
M535.234253,372.977173 
	C516.659790,370.667328 504.738647,359.190247 502.255066,341.639526 
	C500.068848,326.190399 509.147858,311.087280 524.505249,304.625824 
	C542.187195,297.186371 563.516174,306.606903 570.489136,324.935913 
	C577.511475,343.394836 568.091980,364.662170 549.869446,370.693390 
	C545.379272,372.179474 540.426758,372.268463 535.234253,372.977173 
z"/>
<path fill="#06A797" opacity="1.000000" stroke="none" 
	d="
M723.767456,366.284790 
	C709.468750,354.848450 705.292053,338.127747 712.553040,322.328735 
	C719.270325,307.712830 735.155273,299.914520 752.004883,302.960876 
	C770.919922,306.380676 783.051575,325.597656 779.007935,345.734650 
	C775.427368,363.565613 755.912415,376.516602 738.208252,372.353790 
	C733.303284,371.200470 728.763367,368.494568 723.767456,366.284790 
z"/>
</svg>